<svg xmlns="http://www.w3.org/2000/svg" width="39.342" height="52.456" viewBox="0 0 39.342 52.456">
  <path id="Book" d="M36.064,37.7v3.279A1.662,1.662,0,0,0,37.7,42.621a1.639,1.639,0,0,1,0,3.279H19.671v6.557l-4.918-3.279L9.836,52.456V45.9H3.279a3.194,3.194,0,0,1-2.305-.947A3.125,3.125,0,0,1,0,42.621V3.279A3.151,3.151,0,0,1,.973.973,3.151,3.151,0,0,1,3.279,0H36.064a3.128,3.128,0,0,1,2.331.973,3.186,3.186,0,0,1,.947,2.305V36.064H37.7A1.662,1.662,0,0,0,36.064,37.7Zm-32.785,0v3.279a1.575,1.575,0,0,0,.487,1.153,1.575,1.575,0,0,0,1.153.487H9.836V39.342h9.836v3.279H31.146a1.662,1.662,0,0,0,1.639-1.639V37.7a1.662,1.662,0,0,0-1.639-1.639H4.918a1.575,1.575,0,0,0-1.153.487A1.575,1.575,0,0,0,3.279,37.7ZM36.064,4.918a1.575,1.575,0,0,0-.487-1.153,1.575,1.575,0,0,0-1.153-.487H8.2a1.575,1.575,0,0,0-1.153.487,1.575,1.575,0,0,0-.487,1.153V31.146A1.662,1.662,0,0,0,8.2,32.785H34.424a1.662,1.662,0,0,0,1.639-1.639Zm-8.2,14.753H14.753a1.639,1.639,0,0,1,0-3.279H27.867a1.639,1.639,0,0,1,0,3.279Zm0-6.557H14.753A1.63,1.63,0,0,1,13.6,10.322a1.575,1.575,0,0,1,1.153-.487H27.867a1.63,1.63,0,0,1,1.153,2.792A1.575,1.575,0,0,1,27.867,13.114Z" fill="#787566"/>
</svg>
