<svg id="Calendar" xmlns="http://www.w3.org/2000/svg" width="39.723" height="44.136" viewBox="0 0 39.723 44.136">
  <path id="Path_1" data-name="Path 1" d="M39.809,7.414h-6.62V3H28.775V7.414H19.948V3H15.534V7.414H8.914A4.417,4.417,0,0,0,4.5,11.827v30.9a4.417,4.417,0,0,0,4.414,4.414h30.9a4.417,4.417,0,0,0,4.414-4.414v-30.9A4.417,4.417,0,0,0,39.809,7.414ZM8.914,42.723V14.034h30.9V11.827l0,30.9Z" transform="translate(-4.5 -3)" fill="#787566"/>
  <path id="Path_2" data-name="Path 2" d="M10.5,13.5H32.568v4.414H10.5Zm0,8.827H21.534v4.414H10.5Z" transform="translate(-1.673 1.948)" fill="#787566"/>
</svg>
