<svg xmlns="http://www.w3.org/2000/svg" width="30.356" height="30.356" viewBox="0 0 30.356 30.356">
  <path id="linkedin-rect" d="M5.955.009A5.967,5.967,0,0,0,.007,5.958v18.46a5.966,5.966,0,0,0,5.949,5.947h18.46a5.965,5.965,0,0,0,5.947-5.947V5.958A5.966,5.966,0,0,0,24.416.009Zm1.5,5.009a2.39,2.39,0,1,1-.03,4.766h-.03a2.389,2.389,0,1,1,.06-4.766Zm13.517,6.326c3.017,0,5.278,1.972,5.278,6.209v7.91H21.662V18.084c0-1.854-.663-3.12-2.322-3.12a2.511,2.511,0,0,0-2.353,1.676,3.13,3.13,0,0,0-.151,1.119v7.7H12.251s.06-12.5,0-13.795h4.585v1.954a4.551,4.551,0,0,1,4.132-2.277Zm-15.84.325H9.714V25.463H5.129V11.669Z" transform="translate(-0.007 -0.009)" fill="#4f4e47"/>
</svg>
