<svg xmlns="http://www.w3.org/2000/svg" width="78.474" height="15.207" viewBox="0 0 78.474 15.207">
  <path id="Title_TAG:H6_" data-name="Title [TAG:H6]" d="M18.437,0H15.166V-8.8q0-1.425.123-3.148h-.082A15.49,15.49,0,0,1,14.745-10L11.3,0H8.593L5.086-9.9a19.255,19.255,0,0,1-.461-2.051H4.532q.133,2.174.133,3.814V0H1.682V-14.7h4.85l3,8.716a12.272,12.272,0,0,1,.523,2.1h.062a21.166,21.166,0,0,1,.584-2.123l3-8.7h4.727ZM34.5,0H30.89L29.844-3.271H24.615L23.579,0H19.99l5.353-14.7H29.27ZM29.085-5.814l-1.579-4.942a6.441,6.441,0,0,1-.246-1.323h-.082a5.608,5.608,0,0,1-.256,1.282l-1.6,4.983ZM48.194-.984A10.582,10.582,0,0,1,42.841.256a7.741,7.741,0,0,1-5.594-1.964A7.144,7.144,0,0,1,35.2-7.116a7.551,7.551,0,0,1,2.235-5.65,8.144,8.144,0,0,1,5.947-2.184,12.08,12.08,0,0,1,4.122.646V-11.2a8.193,8.193,0,0,0-4.163-.984,4.469,4.469,0,0,0-3.358,1.338,4.916,4.916,0,0,0-1.3,3.573,4.93,4.93,0,0,0,1.164,3.507A4.1,4.1,0,0,0,43-2.522a4.375,4.375,0,0,0,1.887-.338V-5.732H41.939V-8.377h6.255ZM64.072,0H60.729l-6.06-9.239a13.36,13.36,0,0,1-.738-1.22H53.89q.082.779.082,2.379V0H50.845V-14.7h3.568l5.834,8.952q.4.6.738,1.2h.041a15.722,15.722,0,0,1-.082-2.02V-14.7h3.127ZM80.156,0H76.546L75.5-3.271H70.271L69.235,0H65.646L71-14.7h3.927ZM74.742-5.814l-1.579-4.942a6.441,6.441,0,0,1-.246-1.323h-.082a5.608,5.608,0,0,1-.256,1.282l-1.6,4.983Z" transform="translate(-1.682 14.95)" fill="#787566"/>
</svg>
