<svg xmlns="http://www.w3.org/2000/svg" width="46.779" height="47.229" viewBox="0 0 46.779 47.229">
  <path id="Notepad" d="M50,8.846,44.135,2.977a2.713,2.713,0,0,0-3.744,0L35.172,8.212h-28A3.173,3.173,0,0,0,4,11.385v34.9a3.173,3.173,0,0,0,3.173,3.173h34.9a3.173,3.173,0,0,0,3.173-3.173V17.349L50,12.59A2.649,2.649,0,0,0,50,8.846ZM27.526,30.627,20.879,32.1l1.586-6.583,15.15-15.181,5.124,5.124ZM44.452,13.653,39.328,8.529l2.935-2.935,5.124,5.124Z" transform="translate(-4 -2.228)" fill="#787566"/>
</svg>
