<svg xmlns="http://www.w3.org/2000/svg" width="31.777" height="25.813" viewBox="0 0 31.777 25.813">
  <path id="twitter-bird" d="M31.777,3.058A13.2,13.2,0,0,1,28.52,6.424q.019.373.019.844a18.726,18.726,0,0,1-3.091,10.251,19.806,19.806,0,0,1-3.732,4.246,16.636,16.636,0,0,1-5.206,2.949,19.015,19.015,0,0,1-6.517,1.1A18.146,18.146,0,0,1,0,22.884a14.1,14.1,0,0,0,1.555.09,12.782,12.782,0,0,0,8.1-2.793,6.325,6.325,0,0,1-3.786-1.3,6.407,6.407,0,0,1-2.3-3.226,6.517,6.517,0,0,0,2.944-.109A6.354,6.354,0,0,1,2.767,13.3,6.308,6.308,0,0,1,1.281,9.155v-.08a6.434,6.434,0,0,0,2.953.816A6.476,6.476,0,0,1,2.116,7.567a6.361,6.361,0,0,1-.783-3.1,6.405,6.405,0,0,1,.882-3.276A18.562,18.562,0,0,0,8.158,6,18.116,18.116,0,0,0,15.65,8a6.375,6.375,0,0,1-.171-1.484,6.28,6.28,0,0,1,1.91-4.608,6.522,6.522,0,0,1,9.368.146A12.984,12.984,0,0,0,30.9.474a6.3,6.3,0,0,1-2.863,3.607,13.028,13.028,0,0,0,3.745-1.024Z" fill="#4f4e47"/>
</svg>
